solid CATIA STL
  facet normal  1.000000e+000  0.000000e+000  0.000000e+000
    outer loop
      vertex  3.000000e+001  4.094977e+000 -1.061659e+002
      vertex  3.000000e+001  4.618859e+000 -1.037022e+002
      vertex  3.000000e+001  4.094977e+000 -1.037022e+002
    endloop
  endfacet
  facet normal  1.000000e+000  0.000000e+000  0.000000e+000
    outer loop
      vertex  3.000000e+001  2.248436e+000 -1.171947e+002
      vertex  3.000000e+001 -5.503767e-001 -1.175555e+002
      vertex  3.000000e+001  5.364172e+000 -1.175466e+002
    endloop
  endfacet
  facet normal  1.000000e+000  0.000000e+000  0.000000e+000
    outer loop
      vertex  3.000000e+001  4.618859e+000 -1.037022e+002
      vertex  3.000000e+001  4.094977e+000 -1.061659e+002
      vertex  3.000000e+001  6.318859e+000 -1.037022e+002
    endloop
  endfacet
  facet normal  1.000000e+000  0.000000e+000  0.000000e+000
    outer loop
      vertex  3.000000e+001  6.318859e+000 -1.037022e+002
      vertex  3.000000e+001  4.094977e+000 -1.061659e+002
      vertex  3.000000e+001  4.618859e+000 -1.061659e+002
    endloop
  endfacet
  facet normal  1.000000e+000  -0.000000e+000  0.000000e+000
    outer loop
      vertex  3.000000e+001  6.318859e+000 -1.037022e+002
      vertex  3.000000e+001  4.618859e+000 -1.061659e+002
      vertex  3.000000e+001  6.318859e+000 -1.149843e+002
    endloop
  endfacet
  facet normal  1.000000e+000  0.000000e+000  0.000000e+000
    outer loop
      vertex  3.000000e+001  6.318859e+000 -1.149843e+002
      vertex  3.000000e+001  4.618859e+000 -1.061659e+002
      vertex  3.000000e+001  4.618859e+000 -1.149843e+002
    endloop
  endfacet
  facet normal  1.000000e+000  -0.000000e+000  0.000000e+000
    outer loop
      vertex  3.000000e+001  6.318859e+000 -1.149843e+002
      vertex  3.000000e+001  4.618859e+000 -1.149843e+002
      vertex  3.000000e+001  6.279078e+000 -1.155410e+002
    endloop
  endfacet
  facet normal  1.000000e+000  0.000000e+000  0.000000e+000
    outer loop
      vertex  3.000000e+001  6.279078e+000 -1.155410e+002
      vertex  3.000000e+001  4.618859e+000 -1.149843e+002
      vertex  3.000000e+001  4.582145e+000 -1.153860e+002
    endloop
  endfacet
  facet normal  1.000000e+000  0.000000e+000  0.000000e+000
    outer loop
      vertex  3.000000e+001  6.279078e+000 -1.155410e+002
      vertex  3.000000e+001  4.582145e+000 -1.153860e+002
      vertex  3.000000e+001  6.160542e+000 -1.160865e+002
    endloop
  endfacet
  facet normal  1.000000e+000  0.000000e+000  0.000000e+000
    outer loop
      vertex  3.000000e+001  6.160542e+000 -1.160865e+002
      vertex  3.000000e+001  4.582145e+000 -1.153860e+002
      vertex  3.000000e+001  4.473219e+000 -1.157744e+002
    endloop
  endfacet
  facet normal  1.000000e+000  0.000000e+000  0.000000e+000
    outer loop
      vertex  3.000000e+001  6.160542e+000 -1.160865e+002
      vertex  3.000000e+001  4.473219e+000 -1.157744e+002
      vertex  3.000000e+001  4.295691e+000 -1.161366e+002
    endloop
  endfacet
  facet normal  1.000000e+000  -0.000000e+000  0.000000e+000
    outer loop
      vertex  3.000000e+001  6.160542e+000 -1.160865e+002
      vertex  3.000000e+001  4.295691e+000 -1.161366e+002
      vertex  3.000000e+001  5.965662e+000 -1.166095e+002
    endloop
  endfacet
  facet normal  1.000000e+000  0.000000e+000  0.000000e+000
    outer loop
      vertex  3.000000e+001  5.965662e+000 -1.166095e+002
      vertex  3.000000e+001  4.295691e+000 -1.161366e+002
      vertex  3.000000e+001  4.055443e+000 -1.164606e+002
    endloop
  endfacet
  facet normal  1.000000e+000  0.000000e+000  0.000000e+000
    outer loop
      vertex  3.000000e+001  5.965662e+000 -1.166095e+002
      vertex  3.000000e+001  4.055443e+000 -1.164606e+002
      vertex  3.000000e+001  3.760437e+000 -1.167357e+002
    endloop
  endfacet
  facet normal  1.000000e+000  -0.000000e+000  0.000000e+000
    outer loop
      vertex  3.000000e+001  5.965662e+000 -1.166095e+002
      vertex  3.000000e+001  3.760437e+000 -1.167357e+002
      vertex  3.000000e+001  5.698394e+000 -1.170995e+002
    endloop
  endfacet
  facet normal  1.000000e+000  0.000000e+000  0.000000e+000
    outer loop
      vertex  3.000000e+001  5.698394e+000 -1.170995e+002
      vertex  3.000000e+001  3.760437e+000 -1.167357e+002
      vertex  3.000000e+001  3.420449e+000 -1.169527e+002
    endloop
  endfacet
  facet normal  1.000000e+000  0.000000e+000  0.000000e+000
    outer loop
      vertex  3.000000e+001  5.698394e+000 -1.170995e+002
      vertex  3.000000e+001  3.420449e+000 -1.169527e+002
      vertex  3.000000e+001  3.046746e+000 -1.171046e+002
    endloop
  endfacet
  facet normal  1.000000e+000  -0.000000e+000  0.000000e+000
    outer loop
      vertex  3.000000e+001  5.698394e+000 -1.170995e+002
      vertex  3.000000e+001  3.046746e+000 -1.171046e+002
      vertex  3.000000e+001  5.364172e+000 -1.175466e+002
    endloop
  endfacet
  facet normal  9.999999e-001  0.000000e+000  0.000000e+000
    outer loop
      vertex  3.000000e+001  5.364172e+000 -1.175466e+002
      vertex  3.000000e+001  3.046746e+000 -1.171046e+002
      vertex  3.000000e+001  2.651712e+000 -1.171861e+002
    endloop
  endfacet
  facet normal  1.000000e+000  0.000000e+000  0.000000e+000
    outer loop
      vertex  3.000000e+001  5.364172e+000 -1.175466e+002
      vertex  3.000000e+001  2.651712e+000 -1.171861e+002
      vertex  3.000000e+001  2.248436e+000 -1.171947e+002
    endloop
  endfacet
  facet normal  1.000000e+000  -0.000000e+000  0.000000e+000
    outer loop
      vertex  3.000000e+001  5.364172e+000 -1.175466e+002
      vertex  3.000000e+001 -5.503767e-001 -1.175555e+002
      vertex  3.000000e+001  4.969784e+000 -1.179416e+002
    endloop
  endfacet
  facet normal  1.000000e+000  0.000000e+000  0.000000e+000
    outer loop
      vertex  3.000000e+001  4.969784e+000 -1.179416e+002
      vertex  3.000000e+001 -5.503767e-001 -1.175555e+002
      vertex  3.000000e+001 -1.548009e-001 -1.179493e+002
    endloop
  endfacet
  facet normal  1.000000e+000  -0.000000e+000  0.000000e+000
    outer loop
      vertex  3.000000e+001  4.969784e+000 -1.179416e+002
      vertex  3.000000e+001 -1.548009e-001 -1.179493e+002
      vertex  3.000000e+001  4.523244e+000 -1.182765e+002
    endloop
  endfacet
  facet normal  1.000000e+000  0.000000e+000  0.000000e+000
    outer loop
      vertex  3.000000e+001  4.523244e+000 -1.182765e+002
      vertex  3.000000e+001 -1.548009e-001 -1.179493e+002
      vertex  3.000000e+001  2.927454e-001 -1.182828e+002
    endloop
  endfacet
  facet normal  1.000000e+000  -0.000000e+000  0.000000e+000
    outer loop
      vertex  3.000000e+001  4.523244e+000 -1.182765e+002
      vertex  3.000000e+001  2.927454e-001 -1.182828e+002
      vertex  3.000000e+001  4.033626e+000 -1.185445e+002
    endloop
  endfacet
  facet normal  1.000000e+000  0.000000e+000  0.000000e+000
    outer loop
      vertex  3.000000e+001  4.033626e+000 -1.185445e+002
      vertex  3.000000e+001  2.927454e-001 -1.182828e+002
      vertex  3.000000e+001  7.831688e-001 -1.185494e+002
    endloop
  endfacet
  facet normal  1.000000e+000  -0.000000e+000  0.000000e+000
    outer loop
      vertex  3.000000e+001  4.033626e+000 -1.185445e+002
      vertex  3.000000e+001  7.831688e-001 -1.185494e+002
      vertex  3.000000e+001  3.510877e+000 -1.187401e+002
    endloop
  endfacet
  facet normal  9.999999e-001  0.000000e+000  0.000000e+000
    outer loop
      vertex  3.000000e+001  3.510877e+000 -1.187401e+002
      vertex  3.000000e+001  7.831688e-001 -1.185494e+002
      vertex  3.000000e+001  1.306505e+000 -1.187435e+002
    endloop
  endfacet
  facet normal  1.000000e+000  -0.000000e+000  0.000000e+000
    outer loop
      vertex  3.000000e+001  3.510877e+000 -1.187401e+002
      vertex  3.000000e+001  1.306505e+000 -1.187435e+002
      vertex  3.000000e+001  2.965618e+000 -1.188595e+002
    endloop
  endfacet
  facet normal  1.000000e+000  0.000000e+000  0.000000e+000
    outer loop
      vertex  3.000000e+001  2.965618e+000 -1.188595e+002
      vertex  3.000000e+001  1.306505e+000 -1.187435e+002
      vertex  3.000000e+001  1.852120e+000 -1.188612e+002
    endloop
  endfacet
  facet normal  1.000000e+000  -0.000000e+000  0.000000e+000
    outer loop
      vertex  3.000000e+001  2.965618e+000 -1.188595e+002
      vertex  3.000000e+001  1.852120e+000 -1.188612e+002
      vertex  3.000000e+001  2.408929e+000 -1.189001e+002
    endloop
  endfacet
  facet normal  9.999999e-001  0.000000e+000  0.000000e+000
    outer loop
      vertex  3.000000e+001  1.830471e+000 -1.031389e+002
      vertex  3.000000e+001  1.470212e-001 -1.029023e+002
      vertex  3.000000e+001  2.087758e-001 -1.146758e+002
    endloop
  endfacet
  facet normal  9.999999e-001  0.000000e+000  0.000000e+000
    outer loop
      vertex  3.000000e+001  2.087758e-001 -1.146758e+002
      vertex  3.000000e+001  1.470212e-001 -1.029023e+002
      vertex  3.000000e+001 -1.474674e+000 -1.144392e+002
    endloop
  endfacet
  facet normal  1.000000e+000  0.000000e+000  0.000000e+000
    outer loop
      vertex  3.000000e+001  2.087758e-001 -1.146758e+002
      vertex  3.000000e+001 -1.474674e+000 -1.144392e+002
      vertex  3.000000e+001  1.892182e-001 -1.150787e+002
    endloop
  endfacet
  facet normal  9.999999e-001  0.000000e+000  0.000000e+000
    outer loop
      vertex  3.000000e+001  1.892182e-001 -1.150787e+002
      vertex  3.000000e+001 -1.474674e+000 -1.144392e+002
      vertex  3.000000e+001 -1.512778e+000 -1.149961e+002
    endloop
  endfacet
  facet normal  1.000000e+000  0.000000e+000  0.000000e+000
    outer loop
      vertex  3.000000e+001  1.892182e-001 -1.150787e+002
      vertex  3.000000e+001 -1.512778e+000 -1.149961e+002
      vertex  3.000000e+001  2.430224e-001 -1.154785e+002
    endloop
  endfacet
  facet normal  1.000000e+000  0.000000e+000  0.000000e+000
    outer loop
      vertex  3.000000e+001  2.430224e-001 -1.154785e+002
      vertex  3.000000e+001 -1.512778e+000 -1.149961e+002
      vertex  3.000000e+001 -1.471320e+000 -1.155527e+002
    endloop
  endfacet
  facet normal  1.000000e+000  -0.000000e+000  0.000000e+000
    outer loop
      vertex  3.000000e+001  2.430224e-001 -1.154785e+002
      vertex  3.000000e+001 -1.471320e+000 -1.155527e+002
      vertex  3.000000e+001  3.684054e-001 -1.158619e+002
    endloop
  endfacet
  facet normal  1.000000e+000  0.000000e+000  0.000000e+000
    outer loop
      vertex  3.000000e+001  3.684054e-001 -1.158619e+002
      vertex  3.000000e+001 -1.471320e+000 -1.155527e+002
      vertex  3.000000e+001 -1.351142e+000 -1.160978e+002
    endloop
  endfacet
  facet normal  1.000000e+000  -0.000000e+000  0.000000e+000
    outer loop
      vertex  3.000000e+001  3.684054e-001 -1.158619e+002
      vertex  3.000000e+001 -1.351142e+000 -1.160978e+002
      vertex  3.000000e+001  5.612122e-001 -1.162162e+002
    endloop
  endfacet
  facet normal  1.000000e+000  0.000000e+000  0.000000e+000
    outer loop
      vertex  3.000000e+001  5.612122e-001 -1.162162e+002
      vertex  3.000000e+001 -1.351142e+000 -1.160978e+002
      vertex  3.000000e+001  8.150536e-001 -1.165297e+002
    endloop
  endfacet
  facet normal  1.000000e+000  0.000000e+000  0.000000e+000
    outer loop
      vertex  3.000000e+001  8.150536e-001 -1.165297e+002
      vertex  3.000000e+001 -1.351142e+000 -1.160978e+002
      vertex  3.000000e+001 -1.154687e+000 -1.166202e+002
    endloop
  endfacet
  facet normal  1.000000e+000  -0.000000e+000  0.000000e+000
    outer loop
      vertex  3.000000e+001  8.150536e-001 -1.165297e+002
      vertex  3.000000e+001 -1.154687e+000 -1.166202e+002
      vertex  3.000000e+001  1.121518e+000 -1.167919e+002
    endloop
  endfacet
  facet normal  1.000000e+000  0.000000e+000  0.000000e+000
    outer loop
      vertex  3.000000e+001  1.121518e+000 -1.167919e+002
      vertex  3.000000e+001 -1.154687e+000 -1.166202e+002
      vertex  3.000000e+001 -8.859446e-001 -1.171095e+002
    endloop
  endfacet
  facet normal  1.000000e+000  0.000000e+000  0.000000e+000
    outer loop
      vertex  3.000000e+001  1.121518e+000 -1.167919e+002
      vertex  3.000000e+001 -8.859446e-001 -1.171095e+002
      vertex  3.000000e+001  1.470449e+000 -1.169943e+002
    endloop
  endfacet
  facet normal  1.000000e+000  0.000000e+000  0.000000e+000
    outer loop
      vertex  3.000000e+001 -5.503767e-001 -1.175555e+002
      vertex  3.000000e+001  2.248436e+000 -1.171947e+002
      vertex  3.000000e+001 -8.859446e-001 -1.171095e+002
    endloop
  endfacet
  facet normal  9.999999e-001  0.000000e+000  0.000000e+000
    outer loop
      vertex  3.000000e+001 -8.859446e-001 -1.171095e+002
      vertex  3.000000e+001  2.248436e+000 -1.171947e+002
      vertex  3.000000e+001  1.850284e+000 -1.171301e+002
    endloop
  endfacet
  facet normal  1.000000e+000  0.000000e+000  0.000000e+000
    outer loop
      vertex  3.000000e+001 -8.859446e-001 -1.171095e+002
      vertex  3.000000e+001  1.850284e+000 -1.171301e+002
      vertex  3.000000e+001  1.470449e+000 -1.169943e+002
    endloop
  endfacet
  facet normal -1.000000e+000  -0.000000e+000  0.000000e+000
    outer loop
      vertex  2.000000e+001  4.094977e+000 -1.037022e+002
      vertex  2.000000e+001  4.618859e+000 -1.037022e+002
      vertex  2.000000e+001  4.094977e+000 -1.061659e+002
    endloop
  endfacet
  facet normal -1.000000e+000  0.000000e+000  0.000000e+000
    outer loop
      vertex  2.000000e+001  5.364172e+000 -1.175466e+002
      vertex  2.000000e+001 -5.503767e-001 -1.175555e+002
      vertex  2.000000e+001  2.248436e+000 -1.171947e+002
    endloop
  endfacet
  facet normal -1.000000e+000  0.000000e+000  -0.000000e+000
    outer loop
      vertex  2.000000e+001  4.295691e+000 -1.161366e+002
      vertex  2.000000e+001  4.473219e+000 -1.157744e+002
      vertex  2.000000e+001  6.160542e+000 -1.160865e+002
    endloop
  endfacet
  facet normal -1.000000e+000  0.000000e+000  0.000000e+000
    outer loop
      vertex  2.000000e+001  6.160542e+000 -1.160865e+002
      vertex  2.000000e+001  4.473219e+000 -1.157744e+002
      vertex  2.000000e+001  4.582145e+000 -1.153860e+002
    endloop
  endfacet
  facet normal -1.000000e+000  0.000000e+000  0.000000e+000
    outer loop
      vertex  2.000000e+001  6.160542e+000 -1.160865e+002
      vertex  2.000000e+001  4.582145e+000 -1.153860e+002
      vertex  2.000000e+001  6.279078e+000 -1.155410e+002
    endloop
  endfacet
  facet normal -1.000000e+000  0.000000e+000  0.000000e+000
    outer loop
      vertex  2.000000e+001  6.279078e+000 -1.155410e+002
      vertex  2.000000e+001  4.582145e+000 -1.153860e+002
      vertex  2.000000e+001  4.618859e+000 -1.149843e+002
    endloop
  endfacet
  facet normal -1.000000e+000  0.000000e+000  0.000000e+000
    outer loop
      vertex  2.000000e+001  6.279078e+000 -1.155410e+002
      vertex  2.000000e+001  4.618859e+000 -1.149843e+002
      vertex  2.000000e+001  6.318859e+000 -1.149843e+002
    endloop
  endfacet
  facet normal -1.000000e+000  0.000000e+000  0.000000e+000
    outer loop
      vertex  2.000000e+001  6.318859e+000 -1.149843e+002
      vertex  2.000000e+001  4.618859e+000 -1.149843e+002
      vertex  2.000000e+001  4.618859e+000 -1.061659e+002
    endloop
  endfacet
  facet normal -1.000000e+000  0.000000e+000  0.000000e+000
    outer loop
      vertex  2.000000e+001  6.318859e+000 -1.149843e+002
      vertex  2.000000e+001  4.618859e+000 -1.061659e+002
      vertex  2.000000e+001  6.318859e+000 -1.037022e+002
    endloop
  endfacet
  facet normal -1.000000e+000  0.000000e+000  0.000000e+000
    outer loop
      vertex  2.000000e+001  6.318859e+000 -1.037022e+002
      vertex  2.000000e+001  4.618859e+000 -1.061659e+002
      vertex  2.000000e+001  4.094977e+000 -1.061659e+002
    endloop
  endfacet
  facet normal -1.000000e+000  0.000000e+000  0.000000e+000
    outer loop
      vertex  2.000000e+001  6.318859e+000 -1.037022e+002
      vertex  2.000000e+001  4.094977e+000 -1.061659e+002
      vertex  2.000000e+001  4.618859e+000 -1.037022e+002
    endloop
  endfacet
  facet normal -1.000000e+000  0.000000e+000  -0.000000e+000
    outer loop
      vertex  2.000000e+001  3.760437e+000 -1.167357e+002
      vertex  2.000000e+001  4.055443e+000 -1.164606e+002
      vertex  2.000000e+001  5.965662e+000 -1.166095e+002
    endloop
  endfacet
  facet normal -1.000000e+000  0.000000e+000  0.000000e+000
    outer loop
      vertex  2.000000e+001  5.965662e+000 -1.166095e+002
      vertex  2.000000e+001  4.055443e+000 -1.164606e+002
      vertex  2.000000e+001  4.295691e+000 -1.161366e+002
    endloop
  endfacet
  facet normal -1.000000e+000  0.000000e+000  0.000000e+000
    outer loop
      vertex  2.000000e+001  5.965662e+000 -1.166095e+002
      vertex  2.000000e+001  4.295691e+000 -1.161366e+002
      vertex  2.000000e+001  6.160542e+000 -1.160865e+002
    endloop
  endfacet
  facet normal -1.000000e+000  0.000000e+000  -0.000000e+000
    outer loop
      vertex  2.000000e+001  3.046746e+000 -1.171046e+002
      vertex  2.000000e+001  3.420449e+000 -1.169527e+002
      vertex  2.000000e+001  5.698394e+000 -1.170995e+002
    endloop
  endfacet
  facet normal -1.000000e+000  0.000000e+000  0.000000e+000
    outer loop
      vertex  2.000000e+001  5.698394e+000 -1.170995e+002
      vertex  2.000000e+001  3.420449e+000 -1.169527e+002
      vertex  2.000000e+001  3.760437e+000 -1.167357e+002
    endloop
  endfacet
  facet normal -1.000000e+000  0.000000e+000  0.000000e+000
    outer loop
      vertex  2.000000e+001  5.698394e+000 -1.170995e+002
      vertex  2.000000e+001  3.760437e+000 -1.167357e+002
      vertex  2.000000e+001  5.965662e+000 -1.166095e+002
    endloop
  endfacet
  facet normal -1.000000e+000  0.000000e+000  -0.000000e+000
    outer loop
      vertex  2.000000e+001  2.248436e+000 -1.171947e+002
      vertex  2.000000e+001  2.651712e+000 -1.171861e+002
      vertex  2.000000e+001  5.364172e+000 -1.175466e+002
    endloop
  endfacet
  facet normal -9.999999e-001  0.000000e+000  0.000000e+000
    outer loop
      vertex  2.000000e+001  5.364172e+000 -1.175466e+002
      vertex  2.000000e+001  2.651712e+000 -1.171861e+002
      vertex  2.000000e+001  3.046746e+000 -1.171046e+002
    endloop
  endfacet
  facet normal -1.000000e+000  0.000000e+000  0.000000e+000
    outer loop
      vertex  2.000000e+001  5.364172e+000 -1.175466e+002
      vertex  2.000000e+001  3.046746e+000 -1.171046e+002
      vertex  2.000000e+001  5.698394e+000 -1.170995e+002
    endloop
  endfacet
  facet normal -1.000000e+000  0.000000e+000  0.000000e+000
    outer loop
      vertex  2.000000e+001  2.408929e+000 -1.189001e+002
      vertex  2.000000e+001  1.852120e+000 -1.188612e+002
      vertex  2.000000e+001  2.965618e+000 -1.188595e+002
    endloop
  endfacet
  facet normal -1.000000e+000  -0.000000e+000  0.000000e+000
    outer loop
      vertex  2.000000e+001  2.965618e+000 -1.188595e+002
      vertex  2.000000e+001  1.852120e+000 -1.188612e+002
      vertex  2.000000e+001  1.306505e+000 -1.187435e+002
    endloop
  endfacet
  facet normal -1.000000e+000  0.000000e+000  0.000000e+000
    outer loop
      vertex  2.000000e+001  2.965618e+000 -1.188595e+002
      vertex  2.000000e+001  1.306505e+000 -1.187435e+002
      vertex  2.000000e+001  3.510877e+000 -1.187401e+002
    endloop
  endfacet
  facet normal -9.999999e-001  -0.000000e+000  0.000000e+000
    outer loop
      vertex  2.000000e+001  3.510877e+000 -1.187401e+002
      vertex  2.000000e+001  1.306505e+000 -1.187435e+002
      vertex  2.000000e+001  7.831688e-001 -1.185494e+002
    endloop
  endfacet
  facet normal -1.000000e+000  0.000000e+000  0.000000e+000
    outer loop
      vertex  2.000000e+001  3.510877e+000 -1.187401e+002
      vertex  2.000000e+001  7.831688e-001 -1.185494e+002
      vertex  2.000000e+001  4.033626e+000 -1.185445e+002
    endloop
  endfacet
  facet normal -1.000000e+000  -0.000000e+000  0.000000e+000
    outer loop
      vertex  2.000000e+001  4.033626e+000 -1.185445e+002
      vertex  2.000000e+001  7.831688e-001 -1.185494e+002
      vertex  2.000000e+001  2.927454e-001 -1.182828e+002
    endloop
  endfacet
  facet normal -1.000000e+000  0.000000e+000  0.000000e+000
    outer loop
      vertex  2.000000e+001  4.033626e+000 -1.185445e+002
      vertex  2.000000e+001  2.927454e-001 -1.182828e+002
      vertex  2.000000e+001  4.523244e+000 -1.182765e+002
    endloop
  endfacet
  facet normal -1.000000e+000  -0.000000e+000  0.000000e+000
    outer loop
      vertex  2.000000e+001  4.523244e+000 -1.182765e+002
      vertex  2.000000e+001  2.927454e-001 -1.182828e+002
      vertex  2.000000e+001 -1.548009e-001 -1.179493e+002
    endloop
  endfacet
  facet normal -1.000000e+000  0.000000e+000  0.000000e+000
    outer loop
      vertex  2.000000e+001  4.523244e+000 -1.182765e+002
      vertex  2.000000e+001 -1.548009e-001 -1.179493e+002
      vertex  2.000000e+001  4.969784e+000 -1.179416e+002
    endloop
  endfacet
  facet normal -1.000000e+000  -0.000000e+000  0.000000e+000
    outer loop
      vertex  2.000000e+001  4.969784e+000 -1.179416e+002
      vertex  2.000000e+001 -1.548009e-001 -1.179493e+002
      vertex  2.000000e+001 -5.503767e-001 -1.175555e+002
    endloop
  endfacet
  facet normal -1.000000e+000  0.000000e+000  0.000000e+000
    outer loop
      vertex  2.000000e+001  4.969784e+000 -1.179416e+002
      vertex  2.000000e+001 -5.503767e-001 -1.175555e+002
      vertex  2.000000e+001  5.364172e+000 -1.175466e+002
    endloop
  endfacet
  facet normal -1.000000e+000  0.000000e+000  0.000000e+000
    outer loop
      vertex  2.000000e+001  5.612122e-001 -1.162162e+002
      vertex  2.000000e+001 -1.351142e+000 -1.160978e+002
      vertex  2.000000e+001  3.684054e-001 -1.158619e+002
    endloop
  endfacet
  facet normal -1.000000e+000  -0.000000e+000  0.000000e+000
    outer loop
      vertex  2.000000e+001  3.684054e-001 -1.158619e+002
      vertex  2.000000e+001 -1.351142e+000 -1.160978e+002
      vertex  2.000000e+001 -1.471320e+000 -1.155527e+002
    endloop
  endfacet
  facet normal -1.000000e+000  0.000000e+000  0.000000e+000
    outer loop
      vertex  2.000000e+001  3.684054e-001 -1.158619e+002
      vertex  2.000000e+001 -1.471320e+000 -1.155527e+002
      vertex  2.000000e+001  2.430224e-001 -1.154785e+002
    endloop
  endfacet
  facet normal -1.000000e+000  -0.000000e+000  0.000000e+000
    outer loop
      vertex  2.000000e+001  2.430224e-001 -1.154785e+002
      vertex  2.000000e+001 -1.471320e+000 -1.155527e+002
      vertex  2.000000e+001 -1.512778e+000 -1.149961e+002
    endloop
  endfacet
  facet normal -1.000000e+000  0.000000e+000  0.000000e+000
    outer loop
      vertex  2.000000e+001  2.430224e-001 -1.154785e+002
      vertex  2.000000e+001 -1.512778e+000 -1.149961e+002
      vertex  2.000000e+001  1.892182e-001 -1.150787e+002
    endloop
  endfacet
  facet normal -9.999999e-001  0.000000e+000  0.000000e+000
    outer loop
      vertex  2.000000e+001  1.892182e-001 -1.150787e+002
      vertex  2.000000e+001 -1.512778e+000 -1.149961e+002
      vertex  2.000000e+001 -1.474674e+000 -1.144392e+002
    endloop
  endfacet
  facet normal -1.000000e+000  0.000000e+000  0.000000e+000
    outer loop
      vertex  2.000000e+001  1.892182e-001 -1.150787e+002
      vertex  2.000000e+001 -1.474674e+000 -1.144392e+002
      vertex  2.000000e+001  2.087758e-001 -1.146758e+002
    endloop
  endfacet
  facet normal -9.999999e-001  0.000000e+000  0.000000e+000
    outer loop
      vertex  2.000000e+001  2.087758e-001 -1.146758e+002
      vertex  2.000000e+001 -1.474674e+000 -1.144392e+002
      vertex  2.000000e+001  1.470212e-001 -1.029023e+002
    endloop
  endfacet
  facet normal -9.999999e-001  0.000000e+000  0.000000e+000
    outer loop
      vertex  2.000000e+001  2.087758e-001 -1.146758e+002
      vertex  2.000000e+001  1.470212e-001 -1.029023e+002
      vertex  2.000000e+001  1.830471e+000 -1.031389e+002
    endloop
  endfacet
  facet normal -1.000000e+000  0.000000e+000  0.000000e+000
    outer loop
      vertex  2.000000e+001  1.470449e+000 -1.169943e+002
      vertex  2.000000e+001 -8.859446e-001 -1.171095e+002
      vertex  2.000000e+001  1.121518e+000 -1.167919e+002
    endloop
  endfacet
  facet normal -1.000000e+000  -0.000000e+000  0.000000e+000
    outer loop
      vertex  2.000000e+001  1.121518e+000 -1.167919e+002
      vertex  2.000000e+001 -8.859446e-001 -1.171095e+002
      vertex  2.000000e+001 -1.154687e+000 -1.166202e+002
    endloop
  endfacet
  facet normal -1.000000e+000  0.000000e+000  0.000000e+000
    outer loop
      vertex  2.000000e+001  1.121518e+000 -1.167919e+002
      vertex  2.000000e+001 -1.154687e+000 -1.166202e+002
      vertex  2.000000e+001  8.150536e-001 -1.165297e+002
    endloop
  endfacet
  facet normal -1.000000e+000  -0.000000e+000  0.000000e+000
    outer loop
      vertex  2.000000e+001  8.150536e-001 -1.165297e+002
      vertex  2.000000e+001 -1.154687e+000 -1.166202e+002
      vertex  2.000000e+001 -1.351142e+000 -1.160978e+002
    endloop
  endfacet
  facet normal -1.000000e+000  0.000000e+000  0.000000e+000
    outer loop
      vertex  2.000000e+001  8.150536e-001 -1.165297e+002
      vertex  2.000000e+001 -1.351142e+000 -1.160978e+002
      vertex  2.000000e+001  5.612122e-001 -1.162162e+002
    endloop
  endfacet
  facet normal -1.000000e+000  0.000000e+000  0.000000e+000
    outer loop
      vertex  2.000000e+001  1.470449e+000 -1.169943e+002
      vertex  2.000000e+001  1.850284e+000 -1.171301e+002
      vertex  2.000000e+001 -8.859446e-001 -1.171095e+002
    endloop
  endfacet
  facet normal -9.999999e-001  0.000000e+000  0.000000e+000
    outer loop
      vertex  2.000000e+001 -8.859446e-001 -1.171095e+002
      vertex  2.000000e+001  1.850284e+000 -1.171301e+002
      vertex  2.000000e+001  2.248436e+000 -1.171947e+002
    endloop
  endfacet
  facet normal -1.000000e+000  -0.000000e+000  0.000000e+000
    outer loop
      vertex  2.000000e+001 -8.859446e-001 -1.171095e+002
      vertex  2.000000e+001  2.248436e+000 -1.171947e+002
      vertex  2.000000e+001 -5.503767e-001 -1.175555e+002
    endloop
  endfacet
  facet normal  0.000000e+000  0.000000e+000 -1.000000e+000
    outer loop
      vertex  2.000000e+001  4.094977e+000 -1.061659e+002
      vertex  2.000000e+001  4.618859e+000 -1.061659e+002
      vertex  3.000000e+001  4.094977e+000 -1.061659e+002
    endloop
  endfacet
  facet normal  0.000000e+000  0.000000e+000 -1.000000e+000
    outer loop
      vertex  3.000000e+001  4.094977e+000 -1.061659e+002
      vertex  2.000000e+001  4.618859e+000 -1.061659e+002
      vertex  3.000000e+001  4.618859e+000 -1.061659e+002
    endloop
  endfacet
  facet normal  0.000000e+000 -1.000000e+000  0.000000e+000
    outer loop
      vertex  2.000000e+001  4.094977e+000 -1.037022e+002
      vertex  2.000000e+001  4.094977e+000 -1.061659e+002
      vertex  3.000000e+001  4.094977e+000 -1.037022e+002
    endloop
  endfacet
  facet normal  0.000000e+000 -1.000000e+000  -0.000000e+000
    outer loop
      vertex  3.000000e+001  4.094977e+000 -1.037022e+002
      vertex  2.000000e+001  4.094977e+000 -1.061659e+002
      vertex  3.000000e+001  4.094977e+000 -1.061659e+002
    endloop
  endfacet
  facet normal  0.000000e+000  0.000000e+000  1.000000e+000
    outer loop
      vertex  2.000000e+001  4.618859e+000 -1.037022e+002
      vertex  2.000000e+001  4.094977e+000 -1.037022e+002
      vertex  3.000000e+001  4.618859e+000 -1.037022e+002
    endloop
  endfacet
  facet normal  0.000000e+000  0.000000e+000  1.000000e+000
    outer loop
      vertex  3.000000e+001  4.618859e+000 -1.037022e+002
      vertex  2.000000e+001  4.094977e+000 -1.037022e+002
      vertex  3.000000e+001  4.094977e+000 -1.037022e+002
    endloop
  endfacet
  facet normal  0.000000e+000  0.000000e+000  1.000000e+000
    outer loop
      vertex  2.000000e+001  6.318859e+000 -1.037022e+002
      vertex  2.000000e+001  4.618859e+000 -1.037022e+002
      vertex  3.000000e+001  6.318859e+000 -1.037022e+002
    endloop
  endfacet
  facet normal  0.000000e+000  0.000000e+000  1.000000e+000
    outer loop
      vertex  3.000000e+001  6.318859e+000 -1.037022e+002
      vertex  2.000000e+001  4.618859e+000 -1.037022e+002
      vertex  3.000000e+001  4.618859e+000 -1.037022e+002
    endloop
  endfacet
  facet normal  0.000000e+000  9.999999e-001  0.000000e+000
    outer loop
      vertex  3.000000e+001  6.318859e+000 -1.149843e+002
      vertex  2.000000e+001  6.318859e+000 -1.149843e+002
      vertex  3.000000e+001  6.318859e+000 -1.037022e+002
    endloop
  endfacet
  facet normal  0.000000e+000  9.999999e-001  0.000000e+000
    outer loop
      vertex  3.000000e+001  6.318859e+000 -1.037022e+002
      vertex  2.000000e+001  6.318859e+000 -1.149843e+002
      vertex  2.000000e+001  6.318859e+000 -1.037022e+002
    endloop
  endfacet
  facet normal  0.000000e+000  9.974570e-001 -7.127097e-002
    outer loop
      vertex  2.000000e+001  6.318859e+000 -1.149843e+002
      vertex  3.000000e+001  6.318859e+000 -1.149843e+002
      vertex  2.000000e+001  6.279078e+000 -1.155410e+002
    endloop
  endfacet
  facet normal  0.000000e+000  9.974570e-001 -7.127097e-002
    outer loop
      vertex  2.000000e+001  6.279078e+000 -1.155410e+002
      vertex  3.000000e+001  6.318859e+000 -1.149843e+002
      vertex  3.000000e+001  6.279078e+000 -1.155410e+002
    endloop
  endfacet
  facet normal  0.000000e+000  9.771907e-001 -2.123637e-001
    outer loop
      vertex  2.000000e+001  6.279078e+000 -1.155410e+002
      vertex  3.000000e+001  6.279078e+000 -1.155410e+002
      vertex  2.000000e+001  6.160542e+000 -1.160865e+002
    endloop
  endfacet
  facet normal  0.000000e+000  9.771907e-001 -2.123637e-001
    outer loop
      vertex  2.000000e+001  6.160542e+000 -1.160865e+002
      vertex  3.000000e+001  6.279078e+000 -1.155410e+002
      vertex  3.000000e+001  6.160542e+000 -1.160865e+002
    endloop
  endfacet
  facet normal  0.000000e+000  9.370689e-001 -3.491446e-001
    outer loop
      vertex  2.000000e+001  6.160542e+000 -1.160865e+002
      vertex  3.000000e+001  6.160542e+000 -1.160865e+002
      vertex  2.000000e+001  5.965662e+000 -1.166095e+002
    endloop
  endfacet
  facet normal  0.000000e+000  9.370689e-001 -3.491446e-001
    outer loop
      vertex  2.000000e+001  5.965662e+000 -1.166095e+002
      vertex  3.000000e+001  6.160542e+000 -1.160865e+002
      vertex  3.000000e+001  5.965662e+000 -1.166095e+002
    endloop
  endfacet
  facet normal  0.000000e+000  8.779082e-001 -4.788289e-001
    outer loop
      vertex  2.000000e+001  5.965662e+000 -1.166095e+002
      vertex  3.000000e+001  5.965662e+000 -1.166095e+002
      vertex  2.000000e+001  5.698394e+000 -1.170995e+002
    endloop
  endfacet
  facet normal  0.000000e+000  8.779082e-001 -4.788289e-001
    outer loop
      vertex  2.000000e+001  5.698394e+000 -1.170995e+002
      vertex  3.000000e+001  5.965662e+000 -1.166095e+002
      vertex  3.000000e+001  5.698394e+000 -1.170995e+002
    endloop
  endfacet
  facet normal  0.000000e+000  8.009110e-001 -5.987833e-001
    outer loop
      vertex  2.000000e+001  5.698394e+000 -1.170995e+002
      vertex  3.000000e+001  5.698394e+000 -1.170995e+002
      vertex  2.000000e+001  5.364172e+000 -1.175466e+002
    endloop
  endfacet
  facet normal  0.000000e+000  8.009110e-001 -5.987833e-001
    outer loop
      vertex  2.000000e+001  5.364172e+000 -1.175466e+002
      vertex  3.000000e+001  5.698394e+000 -1.170995e+002
      vertex  3.000000e+001  5.364172e+000 -1.175466e+002
    endloop
  endfacet
  facet normal  0.000000e+000  7.076383e-001 -7.065747e-001
    outer loop
      vertex  2.000000e+001  5.364172e+000 -1.175466e+002
      vertex  3.000000e+001  5.364172e+000 -1.175466e+002
      vertex  2.000000e+001  4.969784e+000 -1.179416e+002
    endloop
  endfacet
  facet normal  0.000000e+000  7.076383e-001 -7.065747e-001
    outer loop
      vertex  2.000000e+001  4.969784e+000 -1.179416e+002
      vertex  3.000000e+001  5.364172e+000 -1.175466e+002
      vertex  3.000000e+001  4.969784e+000 -1.179416e+002
    endloop
  endfacet
  facet normal  0.000000e+000  5.999942e-001 -8.000042e-001
    outer loop
      vertex  2.000000e+001  4.969784e+000 -1.179416e+002
      vertex  3.000000e+001  4.969784e+000 -1.179416e+002
      vertex  2.000000e+001  4.523244e+000 -1.182765e+002
    endloop
  endfacet
  facet normal  0.000000e+000  5.999942e-001 -8.000042e-001
    outer loop
      vertex  2.000000e+001  4.523244e+000 -1.182765e+002
      vertex  3.000000e+001  4.969784e+000 -1.179416e+002
      vertex  3.000000e+001  4.523244e+000 -1.182765e+002
    endloop
  endfacet
  facet normal  0.000000e+000  4.801507e-001 -8.771860e-001
    outer loop
      vertex  2.000000e+001  4.523244e+000 -1.182765e+002
      vertex  3.000000e+001  4.523244e+000 -1.182765e+002
      vertex  2.000000e+001  4.033626e+000 -1.185445e+002
    endloop
  endfacet
  facet normal  0.000000e+000  4.801507e-001 -8.771860e-001
    outer loop
      vertex  2.000000e+001  4.033626e+000 -1.185445e+002
      vertex  3.000000e+001  4.523244e+000 -1.182765e+002
      vertex  3.000000e+001  4.033626e+000 -1.185445e+002
    endloop
  endfacet
  facet normal  0.000000e+000  3.505583e-001 -9.365410e-001
    outer loop
      vertex  2.000000e+001  4.033626e+000 -1.185445e+002
      vertex  3.000000e+001  4.033626e+000 -1.185445e+002
      vertex  2.000000e+001  3.510877e+000 -1.187401e+002
    endloop
  endfacet
  facet normal  0.000000e+000  3.505583e-001 -9.365410e-001
    outer loop
      vertex  2.000000e+001  3.510877e+000 -1.187401e+002
      vertex  3.000000e+001  4.033626e+000 -1.185445e+002
      vertex  3.000000e+001  3.510877e+000 -1.187401e+002
    endloop
  endfacet
  facet normal  0.000000e+000  2.138319e-001 -9.768704e-001
    outer loop
      vertex  2.000000e+001  3.510877e+000 -1.187401e+002
      vertex  3.000000e+001  3.510877e+000 -1.187401e+002
      vertex  2.000000e+001  2.965618e+000 -1.188595e+002
    endloop
  endfacet
  facet normal  0.000000e+000  2.138319e-001 -9.768704e-001
    outer loop
      vertex  2.000000e+001  2.965618e+000 -1.188595e+002
      vertex  3.000000e+001  3.510877e+000 -1.187401e+002
      vertex  3.000000e+001  2.965618e+000 -1.188595e+002
    endloop
  endfacet
  facet normal  0.000000e+000  7.277166e-002 -9.973486e-001
    outer loop
      vertex  2.000000e+001  2.965618e+000 -1.188595e+002
      vertex  3.000000e+001  2.965618e+000 -1.188595e+002
      vertex  2.000000e+001  2.408929e+000 -1.189001e+002
    endloop
  endfacet
  facet normal  0.000000e+000  7.277166e-002 -9.973486e-001
    outer loop
      vertex  2.000000e+001  2.408929e+000 -1.189001e+002
      vertex  3.000000e+001  2.965618e+000 -1.188595e+002
      vertex  3.000000e+001  2.408929e+000 -1.189001e+002
    endloop
  endfacet
  facet normal  -0.000000e+000 -6.976461e-002 -9.975635e-001
    outer loop
      vertex  2.000000e+001  2.408929e+000 -1.189001e+002
      vertex  3.000000e+001  2.408929e+000 -1.189001e+002
      vertex  2.000000e+001  1.852120e+000 -1.188612e+002
    endloop
  endfacet
  facet normal  0.000000e+000 -6.976461e-002 -9.975635e-001
    outer loop
      vertex  2.000000e+001  1.852120e+000 -1.188612e+002
      vertex  3.000000e+001  2.408929e+000 -1.189001e+002
      vertex  3.000000e+001  1.852120e+000 -1.188612e+002
    endloop
  endfacet
  facet normal  -0.000000e+000 -2.108929e-001 -9.775091e-001
    outer loop
      vertex  2.000000e+001  1.852120e+000 -1.188612e+002
      vertex  3.000000e+001  1.852120e+000 -1.188612e+002
      vertex  2.000000e+001  1.306505e+000 -1.187435e+002
    endloop
  endfacet
  facet normal  0.000000e+000 -2.108929e-001 -9.775091e-001
    outer loop
      vertex  2.000000e+001  1.306505e+000 -1.187435e+002
      vertex  3.000000e+001  1.852120e+000 -1.188612e+002
      vertex  3.000000e+001  1.306505e+000 -1.187435e+002
    endloop
  endfacet
  facet normal  -0.000000e+000 -3.477297e-001 -9.375948e-001
    outer loop
      vertex  2.000000e+001  1.306505e+000 -1.187435e+002
      vertex  3.000000e+001  1.306505e+000 -1.187435e+002
      vertex  2.000000e+001  7.831688e-001 -1.185494e+002
    endloop
  endfacet
  facet normal  0.000000e+000 -3.477297e-001 -9.375948e-001
    outer loop
      vertex  2.000000e+001  7.831688e-001 -1.185494e+002
      vertex  3.000000e+001  1.306505e+000 -1.187435e+002
      vertex  3.000000e+001  7.831688e-001 -1.185494e+002
    endloop
  endfacet
  facet normal  -0.000000e+000 -4.775112e-001 -8.786257e-001
    outer loop
      vertex  2.000000e+001  7.831688e-001 -1.185494e+002
      vertex  3.000000e+001  7.831688e-001 -1.185494e+002
      vertex  2.000000e+001  2.927454e-001 -1.182828e+002
    endloop
  endfacet
  facet normal  0.000000e+000 -4.775112e-001 -8.786257e-001
    outer loop
      vertex  2.000000e+001  2.927454e-001 -1.182828e+002
      vertex  3.000000e+001  7.831688e-001 -1.185494e+002
      vertex  3.000000e+001  2.927454e-001 -1.182828e+002
    endloop
  endfacet
  facet normal  -0.000000e+000 -5.975778e-001 -8.018110e-001
    outer loop
      vertex  2.000000e+001  2.927454e-001 -1.182828e+002
      vertex  3.000000e+001  2.927454e-001 -1.182828e+002
      vertex  2.000000e+001 -1.548009e-001 -1.179493e+002
    endloop
  endfacet
  facet normal  0.000000e+000 -5.975778e-001 -8.018110e-001
    outer loop
      vertex  2.000000e+001 -1.548009e-001 -1.179493e+002
      vertex  3.000000e+001  2.927454e-001 -1.182828e+002
      vertex  3.000000e+001 -1.548009e-001 -1.179493e+002
    endloop
  endfacet
  facet normal  -0.000000e+000 -7.055064e-001 -7.087036e-001
    outer loop
      vertex  2.000000e+001 -1.548009e-001 -1.179493e+002
      vertex  3.000000e+001 -1.548009e-001 -1.179493e+002
      vertex  2.000000e+001 -5.503767e-001 -1.175555e+002
    endloop
  endfacet
  facet normal  0.000000e+000 -7.055064e-001 -7.087036e-001
    outer loop
      vertex  2.000000e+001 -5.503767e-001 -1.175555e+002
      vertex  3.000000e+001 -1.548009e-001 -1.179493e+002
      vertex  3.000000e+001 -5.503767e-001 -1.175555e+002
    endloop
  endfacet
  facet normal  -0.000000e+000 -7.991048e-001 -6.011918e-001
    outer loop
      vertex  2.000000e+001 -5.503767e-001 -1.175555e+002
      vertex  3.000000e+001 -5.503767e-001 -1.175555e+002
      vertex  2.000000e+001 -8.859446e-001 -1.171095e+002
    endloop
  endfacet
  facet normal  0.000000e+000 -7.991048e-001 -6.011918e-001
    outer loop
      vertex  2.000000e+001 -8.859446e-001 -1.171095e+002
      vertex  3.000000e+001 -5.503767e-001 -1.175555e+002
      vertex  3.000000e+001 -8.859446e-001 -1.171095e+002
    endloop
  endfacet
  facet normal  -0.000000e+000 -8.764614e-001 -4.814721e-001
    outer loop
      vertex  2.000000e+001 -8.859446e-001 -1.171095e+002
      vertex  3.000000e+001 -8.859446e-001 -1.171095e+002
      vertex  2.000000e+001 -1.154687e+000 -1.166202e+002
    endloop
  endfacet
  facet normal  0.000000e+000 -8.764614e-001 -4.814721e-001
    outer loop
      vertex  2.000000e+001 -1.154687e+000 -1.166202e+002
      vertex  3.000000e+001 -8.859446e-001 -1.171095e+002
      vertex  3.000000e+001 -1.154687e+000 -1.166202e+002
    endloop
  endfacet
  facet normal  -0.000000e+000 -9.360132e-001 -3.519648e-001
    outer loop
      vertex  2.000000e+001 -1.154687e+000 -1.166202e+002
      vertex  3.000000e+001 -1.154687e+000 -1.166202e+002
      vertex  2.000000e+001 -1.351142e+000 -1.160978e+002
    endloop
  endfacet
  facet normal  0.000000e+000 -9.360132e-001 -3.519648e-001
    outer loop
      vertex  2.000000e+001 -1.351142e+000 -1.160978e+002
      vertex  3.000000e+001 -1.154687e+000 -1.166202e+002
      vertex  3.000000e+001 -1.351142e+000 -1.160978e+002
    endloop
  endfacet
  facet normal  -0.000000e+000 -9.765467e-001 -2.153055e-001
    outer loop
      vertex  2.000000e+001 -1.351142e+000 -1.160978e+002
      vertex  3.000000e+001 -1.351142e+000 -1.160978e+002
      vertex  2.000000e+001 -1.471320e+000 -1.155527e+002
    endloop
  endfacet
  facet normal  0.000000e+000 -9.765467e-001 -2.153055e-001
    outer loop
      vertex  2.000000e+001 -1.471320e+000 -1.155527e+002
      vertex  3.000000e+001 -1.351142e+000 -1.160978e+002
      vertex  3.000000e+001 -1.471320e+000 -1.155527e+002
    endloop
  endfacet
  facet normal  -0.000000e+000 -9.972377e-001 -7.427547e-002
    outer loop
      vertex  2.000000e+001 -1.471320e+000 -1.155527e+002
      vertex  3.000000e+001 -1.471320e+000 -1.155527e+002
      vertex  2.000000e+001 -1.512778e+000 -1.149961e+002
    endloop
  endfacet
  facet normal  0.000000e+000 -9.972377e-001 -7.427547e-002
    outer loop
      vertex  2.000000e+001 -1.512778e+000 -1.149961e+002
      vertex  3.000000e+001 -1.471320e+000 -1.155527e+002
      vertex  3.000000e+001 -1.512778e+000 -1.149961e+002
    endloop
  endfacet
  facet normal  0.000000e+000 -9.976671e-001  6.826677e-002
    outer loop
      vertex  2.000000e+001 -1.512778e+000 -1.149961e+002
      vertex  3.000000e+001 -1.512778e+000 -1.149961e+002
      vertex  2.000000e+001 -1.474674e+000 -1.144392e+002
    endloop
  endfacet
  facet normal  0.000000e+000 -9.976671e-001  6.826677e-002
    outer loop
      vertex  2.000000e+001 -1.474674e+000 -1.144392e+002
      vertex  3.000000e+001 -1.512778e+000 -1.149961e+002
      vertex  3.000000e+001 -1.474674e+000 -1.144392e+002
    endloop
  endfacet
  facet normal  0.000000e+000 -9.902647e-001  1.391971e-001
    outer loop
      vertex  3.000000e+001  1.470212e-001 -1.029023e+002
      vertex  2.000000e+001  1.470212e-001 -1.029023e+002
      vertex  3.000000e+001 -1.474674e+000 -1.144392e+002
    endloop
  endfacet
  facet normal  0.000000e+000 -9.902647e-001  1.391971e-001
    outer loop
      vertex  3.000000e+001 -1.474674e+000 -1.144392e+002
      vertex  2.000000e+001  1.470212e-001 -1.029023e+002
      vertex  2.000000e+001 -1.474674e+000 -1.144392e+002
    endloop
  endfacet
  facet normal  0.000000e+000  1.391961e-001  9.902648e-001
    outer loop
      vertex  2.000000e+001  1.830471e+000 -1.031389e+002
      vertex  2.000000e+001  1.470212e-001 -1.029023e+002
      vertex  3.000000e+001  1.830471e+000 -1.031389e+002
    endloop
  endfacet
  facet normal  0.000000e+000  1.391961e-001  9.902648e-001
    outer loop
      vertex  3.000000e+001  1.830471e+000 -1.031389e+002
      vertex  2.000000e+001  1.470212e-001 -1.029023e+002
      vertex  3.000000e+001  1.470212e-001 -1.029023e+002
    endloop
  endfacet
  facet normal  0.000000e+000  9.902647e-001 -1.391971e-001
    outer loop
      vertex  3.000000e+001  2.087758e-001 -1.146758e+002
      vertex  2.000000e+001  2.087758e-001 -1.146758e+002
      vertex  3.000000e+001  1.830471e+000 -1.031389e+002
    endloop
  endfacet
  facet normal  0.000000e+000  9.902647e-001 -1.391971e-001
    outer loop
      vertex  3.000000e+001  1.830471e+000 -1.031389e+002
      vertex  2.000000e+001  2.087758e-001 -1.146758e+002
      vertex  2.000000e+001  1.830471e+000 -1.031389e+002
    endloop
  endfacet
  facet normal  0.000000e+000 -2.131638e-002  9.997728e-001
    outer loop
      vertex  2.000000e+001  2.248436e+000 -1.171947e+002
      vertex  3.000000e+001  2.651712e+000 -1.171861e+002
      vertex  2.000000e+001  2.651712e+000 -1.171861e+002
    endloop
  endfacet
  facet normal  0.000000e+000 -2.021942e-001  9.793454e-001
    outer loop
      vertex  2.000000e+001  2.651712e+000 -1.171861e+002
      vertex  3.000000e+001  2.651712e+000 -1.171861e+002
      vertex  3.000000e+001  3.046746e+000 -1.171046e+002
    endloop
  endfacet
  facet normal  0.000000e+000 -2.021942e-001  9.793454e-001
    outer loop
      vertex  2.000000e+001  2.651712e+000 -1.171861e+002
      vertex  3.000000e+001  3.046746e+000 -1.171046e+002
      vertex  2.000000e+001  3.046746e+000 -1.171046e+002
    endloop
  endfacet
  facet normal  0.000000e+000 -3.764106e-001  9.264531e-001
    outer loop
      vertex  2.000000e+001  3.046746e+000 -1.171046e+002
      vertex  3.000000e+001  3.046746e+000 -1.171046e+002
      vertex  3.000000e+001  3.420449e+000 -1.169527e+002
    endloop
  endfacet
  facet normal  0.000000e+000 -3.764106e-001  9.264531e-001
    outer loop
      vertex  2.000000e+001  3.046746e+000 -1.171046e+002
      vertex  3.000000e+001  3.420449e+000 -1.169527e+002
      vertex  2.000000e+001  3.420449e+000 -1.169527e+002
    endloop
  endfacet
  facet normal  0.000000e+000 -5.381112e-001  8.428739e-001
    outer loop
      vertex  2.000000e+001  3.420449e+000 -1.169527e+002
      vertex  3.000000e+001  3.420449e+000 -1.169527e+002
      vertex  3.000000e+001  3.760437e+000 -1.167357e+002
    endloop
  endfacet
  facet normal  0.000000e+000 -5.381112e-001  8.428739e-001
    outer loop
      vertex  2.000000e+001  3.420449e+000 -1.169527e+002
      vertex  3.000000e+001  3.760437e+000 -1.167357e+002
      vertex  2.000000e+001  3.760437e+000 -1.167357e+002
    endloop
  endfacet
  facet normal  0.000000e+000 -6.819927e-001  7.313590e-001
    outer loop
      vertex  2.000000e+001  3.760437e+000 -1.167357e+002
      vertex  3.000000e+001  3.760437e+000 -1.167357e+002
      vertex  3.000000e+001  4.055443e+000 -1.164606e+002
    endloop
  endfacet
  facet normal  0.000000e+000 -6.819927e-001  7.313590e-001
    outer loop
      vertex  2.000000e+001  3.760437e+000 -1.167357e+002
      vertex  3.000000e+001  4.055443e+000 -1.164606e+002
      vertex  2.000000e+001  4.055443e+000 -1.164606e+002
    endloop
  endfacet
  facet normal  0.000000e+000 -8.032745e-001  5.956089e-001
    outer loop
      vertex  2.000000e+001  4.055443e+000 -1.164606e+002
      vertex  3.000000e+001  4.055443e+000 -1.164606e+002
      vertex  3.000000e+001  4.295691e+000 -1.161366e+002
    endloop
  endfacet
  facet normal  0.000000e+000 -8.032745e-001  5.956089e-001
    outer loop
      vertex  2.000000e+001  4.055443e+000 -1.164606e+002
      vertex  3.000000e+001  4.295691e+000 -1.161366e+002
      vertex  2.000000e+001  4.295691e+000 -1.161366e+002
    endloop
  endfacet
  facet normal  0.000000e+000 -8.979399e-001  4.401180e-001
    outer loop
      vertex  2.000000e+001  4.295691e+000 -1.161366e+002
      vertex  3.000000e+001  4.295691e+000 -1.161366e+002
      vertex  3.000000e+001  4.473219e+000 -1.157744e+002
    endloop
  endfacet
  facet normal  0.000000e+000 -8.979399e-001  4.401180e-001
    outer loop
      vertex  2.000000e+001  4.295691e+000 -1.161366e+002
      vertex  3.000000e+001  4.473219e+000 -1.157744e+002
      vertex  2.000000e+001  4.473219e+000 -1.157744e+002
    endloop
  endfacet
  facet normal  0.000000e+000 -9.628487e-001  2.700411e-001
    outer loop
      vertex  2.000000e+001  4.473219e+000 -1.157744e+002
      vertex  3.000000e+001  4.473219e+000 -1.157744e+002
      vertex  3.000000e+001  4.582145e+000 -1.153860e+002
    endloop
  endfacet
  facet normal  0.000000e+000 -9.628487e-001  2.700411e-001
    outer loop
      vertex  2.000000e+001  4.473219e+000 -1.157744e+002
      vertex  3.000000e+001  4.582145e+000 -1.153860e+002
      vertex  2.000000e+001  4.582145e+000 -1.153860e+002
    endloop
  endfacet
  facet normal  0.000000e+000 -9.958491e-001  9.101963e-002
    outer loop
      vertex  2.000000e+001  4.582145e+000 -1.153860e+002
      vertex  3.000000e+001  4.582145e+000 -1.153860e+002
      vertex  3.000000e+001  4.618859e+000 -1.149843e+002
    endloop
  endfacet
  facet normal  0.000000e+000 -9.958491e-001  9.101963e-002
    outer loop
      vertex  2.000000e+001  4.582145e+000 -1.153860e+002
      vertex  3.000000e+001  4.618859e+000 -1.149843e+002
      vertex  2.000000e+001  4.618859e+000 -1.149843e+002
    endloop
  endfacet
  facet normal  0.000000e+000 -2.131638e-002  9.997728e-001
    outer loop
      vertex  3.000000e+001  2.651712e+000 -1.171861e+002
      vertex  2.000000e+001  2.248436e+000 -1.171947e+002
      vertex  3.000000e+001  2.248436e+000 -1.171947e+002
    endloop
  endfacet
  facet normal  0.000000e+000  1.602611e-001  9.870746e-001
    outer loop
      vertex  3.000000e+001  2.248436e+000 -1.171947e+002
      vertex  2.000000e+001  2.248436e+000 -1.171947e+002
      vertex  2.000000e+001  1.850284e+000 -1.171301e+002
    endloop
  endfacet
  facet normal  -0.000000e+000  1.602611e-001  9.870746e-001
    outer loop
      vertex  3.000000e+001  2.248436e+000 -1.171947e+002
      vertex  2.000000e+001  1.850284e+000 -1.171301e+002
      vertex  3.000000e+001  1.850284e+000 -1.171301e+002
    endloop
  endfacet
  facet normal  0.000000e+000  3.365606e-001  9.416619e-001
    outer loop
      vertex  3.000000e+001  1.850284e+000 -1.171301e+002
      vertex  2.000000e+001  1.850284e+000 -1.171301e+002
      vertex  2.000000e+001  1.470449e+000 -1.169943e+002
    endloop
  endfacet
  facet normal  -0.000000e+000  3.365606e-001  9.416619e-001
    outer loop
      vertex  3.000000e+001  1.850284e+000 -1.171301e+002
      vertex  2.000000e+001  1.470449e+000 -1.169943e+002
      vertex  3.000000e+001  1.470449e+000 -1.169943e+002
    endloop
  endfacet
  facet normal  0.000000e+000  5.016988e-001  8.650424e-001
    outer loop
      vertex  3.000000e+001  1.470449e+000 -1.169943e+002
      vertex  2.000000e+001  1.470449e+000 -1.169943e+002
      vertex  2.000000e+001  1.121518e+000 -1.167919e+002
    endloop
  endfacet
  facet normal  -0.000000e+000  5.016988e-001  8.650424e-001
    outer loop
      vertex  3.000000e+001  1.470449e+000 -1.169943e+002
      vertex  2.000000e+001  1.121518e+000 -1.167919e+002
      vertex  3.000000e+001  1.121518e+000 -1.167919e+002
    endloop
  endfacet
  facet normal  0.000000e+000  6.501974e-001  7.597653e-001
    outer loop
      vertex  3.000000e+001  1.121518e+000 -1.167919e+002
      vertex  2.000000e+001  1.121518e+000 -1.167919e+002
      vertex  2.000000e+001  8.150536e-001 -1.165297e+002
    endloop
  endfacet
  facet normal  -0.000000e+000  6.501974e-001  7.597653e-001
    outer loop
      vertex  3.000000e+001  1.121518e+000 -1.167919e+002
      vertex  2.000000e+001  8.150536e-001 -1.165297e+002
      vertex  3.000000e+001  8.150536e-001 -1.165297e+002
    endloop
  endfacet
  facet normal  0.000000e+000  7.771543e-001  6.293100e-001
    outer loop
      vertex  3.000000e+001  8.150536e-001 -1.165297e+002
      vertex  2.000000e+001  8.150536e-001 -1.165297e+002
      vertex  2.000000e+001  5.612122e-001 -1.162162e+002
    endloop
  endfacet
  facet normal  -0.000000e+000  7.771543e-001  6.293100e-001
    outer loop
      vertex  3.000000e+001  8.150536e-001 -1.165297e+002
      vertex  2.000000e+001  5.612122e-001 -1.162162e+002
      vertex  3.000000e+001  5.612122e-001 -1.162162e+002
    endloop
  endfacet
  facet normal  0.000000e+000  8.783669e-001  4.779870e-001
    outer loop
      vertex  3.000000e+001  5.612122e-001 -1.162162e+002
      vertex  2.000000e+001  5.612122e-001 -1.162162e+002
      vertex  2.000000e+001  3.684054e-001 -1.158619e+002
    endloop
  endfacet
  facet normal  -0.000000e+000  8.783669e-001  4.779870e-001
    outer loop
      vertex  3.000000e+001  5.612122e-001 -1.162162e+002
      vertex  2.000000e+001  3.684054e-001 -1.158619e+002
      vertex  3.000000e+001  3.684054e-001 -1.158619e+002
    endloop
  endfacet
  facet normal  0.000000e+000  9.504620e-001  3.108411e-001
    outer loop
      vertex  3.000000e+001  3.684054e-001 -1.158619e+002
      vertex  2.000000e+001  3.684054e-001 -1.158619e+002
      vertex  2.000000e+001  2.430224e-001 -1.154785e+002
    endloop
  endfacet
  facet normal  -0.000000e+000  9.504620e-001  3.108411e-001
    outer loop
      vertex  3.000000e+001  3.684054e-001 -1.158619e+002
      vertex  2.000000e+001  2.430224e-001 -1.154785e+002
      vertex  3.000000e+001  2.430224e-001 -1.154785e+002
    endloop
  endfacet
  facet normal  0.000000e+000  9.910637e-001  1.333893e-001
    outer loop
      vertex  3.000000e+001  2.430224e-001 -1.154785e+002
      vertex  2.000000e+001  2.430224e-001 -1.154785e+002
      vertex  2.000000e+001  1.892182e-001 -1.150787e+002
    endloop
  endfacet
  facet normal  -0.000000e+000  9.910637e-001  1.333893e-001
    outer loop
      vertex  3.000000e+001  2.430224e-001 -1.154785e+002
      vertex  2.000000e+001  1.892182e-001 -1.150787e+002
      vertex  3.000000e+001  1.892182e-001 -1.150787e+002
    endloop
  endfacet
  facet normal  0.000000e+000  9.988239e-001 -4.848588e-002
    outer loop
      vertex  3.000000e+001  1.892182e-001 -1.150787e+002
      vertex  2.000000e+001  1.892182e-001 -1.150787e+002
      vertex  2.000000e+001  2.087758e-001 -1.146758e+002
    endloop
  endfacet
  facet normal  0.000000e+000  9.988239e-001 -4.848588e-002
    outer loop
      vertex  3.000000e+001  1.892182e-001 -1.150787e+002
      vertex  2.000000e+001  2.087758e-001 -1.146758e+002
      vertex  3.000000e+001  2.087758e-001 -1.146758e+002
    endloop
  endfacet
  facet normal  0.000000e+000 -1.000000e+000  0.000000e+000
    outer loop
      vertex  2.000000e+001  4.618859e+000 -1.061659e+002
      vertex  2.000000e+001  4.618859e+000 -1.149843e+002
      vertex  3.000000e+001  4.618859e+000 -1.061659e+002
    endloop
  endfacet
  facet normal  0.000000e+000 -1.000000e+000  -0.000000e+000
    outer loop
      vertex  3.000000e+001  4.618859e+000 -1.061659e+002
      vertex  2.000000e+001  4.618859e+000 -1.149843e+002
      vertex  3.000000e+001  4.618859e+000 -1.149843e+002
    endloop
  endfacet
endsolid CATIA STL
